<svg preserveAspectRatio="none" width="100%" height="100%" overflow="visible" style="display: block;" viewBox="0 0 842.691 723" fill="none" xmlns="http://www.w3.org/2000/svg">
<g id="_&#235;&#160;&#136;&#236;&#157;&#180;&#236;&#150;&#180;_1" clip-path="url(#clip0_0_9)">
<g id="Group">
<path id="Vector" d="M568.213 173.614L604.715 226.813" stroke="var(--stroke-0, white)" stroke-width="1.05134" stroke-miterlimit="10"/>
<path id="Vector_2" d="M511.91 408.444L696.229 297.929" stroke="var(--stroke-0, white)" stroke-width="1.05134" stroke-miterlimit="10"/>
<path id="Vector_3" d="M781.864 317.774L696.229 297.683" stroke="var(--stroke-0, white)" stroke-width="1.05134" stroke-miterlimit="10"/>
<path id="Vector_4" d="M710.341 138.36L604.715 226.813" stroke="var(--stroke-0, white)" stroke-width="1.05134" stroke-miterlimit="10"/>
<path id="Vector_5" d="M782.173 318.702L842.519 362.237" stroke="var(--stroke-0, white)" stroke-width="1.05134" stroke-miterlimit="10"/>
<path id="Vector_6" d="M682.171 248.521L694.193 202.932" stroke="var(--stroke-0, white)" stroke-width="1.05134" stroke-miterlimit="10"/>
<path id="Vector_7" d="M604.715 226.813L694.194 202.932" stroke="var(--stroke-0, white)" stroke-width="1.05134" stroke-miterlimit="10"/>
<path id="Vector_8" d="M600.217 487.616L492.037 282.775" stroke="var(--stroke-0, white)" stroke-width="1.05134" stroke-miterlimit="10"/>
<path id="Vector_9" d="M234.187 676.965L600.217 489.534" stroke="var(--stroke-0, white)" stroke-width="1.05134" stroke-miterlimit="10"/>
<path id="Vector_10" d="M293.307 518.206L337.941 499.142" stroke="var(--stroke-0, white)" stroke-width="1.05134" stroke-miterlimit="10"/>
<path id="Vector_11" d="M492.346 287.938L339.305 495.788" stroke="var(--stroke-0, white)" stroke-width="1.05134" stroke-miterlimit="10"/>
<path id="Vector_12" d="M337.942 499.142L234.187 676.965" stroke="var(--stroke-0, white)" stroke-width="1.05134" stroke-miterlimit="10"/>
<path id="Vector_13" d="M293.307 520.087L346.683 318.928" stroke="var(--stroke-0, white)" stroke-width="1.05134" stroke-miterlimit="10"/>
<path id="Vector_14" d="M783.417 568.286L696.583 297.929" stroke="var(--stroke-0, white)" stroke-width="1.05134" stroke-miterlimit="10"/>
<path id="Vector_15" d="M236.314 676.965L511.91 409.171" stroke="var(--stroke-0, white)" stroke-width="1.05134" stroke-miterlimit="10"/>
<path id="Vector_16" d="M278.75 286.257L191.843 128.179" stroke="var(--stroke-0, white)" stroke-width="1.05134" stroke-miterlimit="10"/>
<path id="Vector_17" d="M142.71 447.544L278.75 286.257" stroke="var(--stroke-0, white)" stroke-width="1.05134" stroke-miterlimit="10"/>
<path id="Vector_18" d="M50.0598 339.446L97.0118 258.657" stroke="var(--stroke-0, white)" stroke-width="1.05134" stroke-miterlimit="10"/>
<path id="Vector_19" d="M682.889 248.521L493.827 285.357" stroke="var(--stroke-0, white)" stroke-width="1.05134" stroke-miterlimit="10"/>
<path id="Vector_20" d="M278.75 286.257L50.0598 339.446" stroke="var(--stroke-0, white)" stroke-width="1.05134" stroke-miterlimit="10"/>
<path id="Vector_21" d="M231.916 676.956L278.75 286.257" stroke="var(--stroke-0, white)" stroke-width="1.05134" stroke-miterlimit="10"/>
<path id="Vector_22" d="M12.5402 494.97L278.75 286.257" stroke="var(--stroke-0, white)" stroke-width="1.05134" stroke-miterlimit="10"/>
<path id="Vector_23" d="M234.197 679.574L0.209161 435.035" stroke="var(--stroke-0, white)" stroke-width="1.05134" stroke-miterlimit="10"/>
<path id="Vector_24" d="M278.749 286.257L295.487 520.724" stroke="var(--stroke-0, white)" stroke-width="1.05134" stroke-miterlimit="10"/>
<path id="Vector_25" d="M31.6496 209.122L191.842 124.915" stroke="var(--stroke-0, white)" stroke-width="1.05134" stroke-miterlimit="10"/>
<path id="Vector_26" d="M781.128 318.465L682.599 716.455" stroke="var(--stroke-0, white)" stroke-width="1.05134" stroke-miterlimit="10"/>
<path id="Vector_27" d="M555.8 685.874L821.691 592.722" stroke="var(--stroke-0, white)" stroke-width="1.05134" stroke-miterlimit="10"/>
<path id="Vector_28" d="M601.652 488.752L805.526 207.35" stroke="var(--stroke-0, white)" stroke-width="1.05134" stroke-miterlimit="10"/>
</g>
<path id="Vector_29" d="M682.171 248.521L695.61 297.929" stroke="var(--stroke-0, white)" stroke-width="1.05134" stroke-miterlimit="10"/>
<path id="Vector_30" d="M511.911 415.617C515.469 415.617 518.353 412.731 518.353 409.171C518.353 405.612 515.469 402.726 511.911 402.726C508.352 402.726 505.468 405.612 505.468 409.171C505.468 412.731 508.352 415.617 511.911 415.617Z" fill="var(--fill-0, #AEDCE9)"/>
<path id="Vector_31" d="M786.189 578.631C790.696 578.631 794.349 574.976 794.349 570.468C794.349 565.959 790.696 562.304 786.189 562.304C781.683 562.304 778.029 565.959 778.029 570.468C778.029 574.976 781.683 578.631 786.189 578.631Z" fill="var(--fill-0, #9186BB)"/>
<path id="Vector_32" d="M627.895 594.049C632.402 594.049 636.055 590.394 636.055 585.885C636.055 581.377 632.402 577.722 627.895 577.722C623.389 577.722 619.735 581.377 619.735 585.885C619.735 590.394 623.389 594.049 627.895 594.049Z" fill="var(--fill-0, #ED9D9D)"/>
<path id="Vector_33" d="M695.611 311.565C703.139 311.565 709.241 305.46 709.241 297.929C709.241 290.398 703.139 284.293 695.611 284.293C688.083 284.293 681.98 290.398 681.98 297.929C681.98 305.46 688.083 311.565 695.611 311.565Z" fill="var(--fill-0, #9FCA93)"/>
<path id="Vector_34" d="M781.864 328.5C787.404 328.5 791.896 324.007 791.896 318.464C791.896 312.922 787.404 308.428 781.864 308.428C776.323 308.428 771.832 312.922 771.832 318.464C771.832 324.007 776.323 328.5 781.864 328.5Z" fill="var(--fill-0, #AEDCE9)"/>
<path id="Vector_35" d="M191.843 135.833C197.87 135.833 202.756 130.945 202.756 124.915C202.756 118.885 197.87 113.997 191.843 113.997C185.816 113.997 180.93 118.885 180.93 124.915C180.93 130.945 185.816 135.833 191.843 135.833Z" fill="var(--fill-0, #AEDCE9)"/>
<path id="Vector_36" d="M234.188 692.373C242.694 692.373 249.59 685.474 249.59 676.964C249.59 668.454 242.694 661.555 234.188 661.555C225.681 661.555 218.785 668.454 218.785 676.964C218.785 685.474 225.681 692.373 234.188 692.373Z" fill="var(--fill-0, #AEDCE9)"/>
<path id="Vector_37" d="M50.0595 357.864C60.227 357.864 68.4695 349.618 68.4695 339.446C68.4695 329.274 60.227 321.028 50.0595 321.028C39.8919 321.028 31.6494 329.274 31.6494 339.446C31.6494 349.618 39.8919 357.864 50.0595 357.864Z" fill="var(--fill-0, #AEDCE9)"/>
<path id="Vector_38" d="M682.944 723C686.557 723 689.487 720.07 689.487 716.455C689.487 712.84 686.557 709.91 682.944 709.91C679.331 709.91 676.401 712.84 676.401 716.455C676.401 720.07 679.331 723 682.944 723Z" fill="var(--fill-0, #ED9D9D)"/>
<path id="Vector_39" d="M757.62 72.6893C763.687 72.6893 768.606 67.7686 768.606 61.6986C768.606 55.6287 763.687 50.708 757.62 50.708C751.552 50.708 746.634 55.6287 746.634 61.6986C746.634 67.7686 751.552 72.6893 757.62 72.6893Z" fill="var(--fill-0, #9FCA93)"/>
<path id="Vector_40" d="M293.307 530.205C298.893 530.205 303.421 525.675 303.421 520.087C303.421 514.499 298.893 509.969 293.307 509.969C287.721 509.969 283.193 514.499 283.193 520.087C283.193 525.675 287.721 530.205 293.307 530.205Z" fill="var(--fill-0, #AEDCE9)"/>
<path id="Vector_41" d="M48.6334 22.454C54.8314 22.454 59.8558 17.4275 59.8558 11.227C59.8558 5.02649 54.8314 0 48.6334 0C42.4355 0 37.4111 5.02649 37.4111 11.227C37.4111 17.4275 42.4355 22.454 48.6334 22.454Z" fill="var(--fill-0, #F5ECB4)"/>
<path id="Vector_42" d="M296.205 356.183C300.682 356.183 304.311 352.552 304.311 348.074C304.311 343.595 300.682 339.965 296.205 339.965C291.729 339.965 288.1 343.595 288.1 348.074C288.1 352.552 291.729 356.183 296.205 356.183Z" fill="var(--fill-0, #9FCA93)"/>
<path id="Vector_43" d="M493.546 291.329C496.933 291.329 499.679 288.582 499.679 285.193C499.679 281.804 496.933 279.057 493.546 279.057C490.158 279.057 487.412 281.804 487.412 285.193C487.412 288.582 490.158 291.329 493.546 291.329Z" fill="var(--fill-0, #AEDCE9)"/>
<path id="Vector_44" d="M142.71 456.516C147.613 456.516 151.588 452.54 151.588 447.635C151.588 442.729 147.613 438.753 142.71 438.753C137.807 438.753 133.832 442.729 133.832 447.635C133.832 452.54 137.807 456.516 142.71 456.516Z" fill="var(--fill-0, #9186BB)"/>
<path id="Vector_45" d="M710.34 145.26C714.149 145.26 717.237 142.171 717.237 138.36C717.237 134.55 714.149 131.46 710.34 131.46C706.531 131.46 703.443 134.55 703.443 138.36C703.443 142.171 706.531 145.26 710.34 145.26Z" fill="var(--fill-0, #AEDCE9)"/>
<path id="Vector_46" d="M803.772 215.322C807.581 215.322 810.669 212.233 810.669 208.422C810.669 204.611 807.581 201.522 803.772 201.522C799.963 201.522 796.875 204.611 796.875 208.422C796.875 212.233 799.963 215.322 803.772 215.322Z" fill="var(--fill-0, #AEDCE9)"/>
<path id="Vector_47" d="M604.714 238.04C610.912 238.04 615.937 233.013 615.937 226.813C615.937 220.612 610.912 215.586 604.714 215.586C598.517 215.586 593.492 220.612 593.492 226.813C593.492 233.013 598.517 238.04 604.714 238.04Z" fill="var(--fill-0, #AEDCE9)"/>
<path id="Vector_48" d="M337.942 507.551C342.584 507.551 346.347 503.786 346.347 499.142C346.347 494.498 342.584 490.733 337.942 490.733C333.3 490.733 329.536 494.498 329.536 499.142C329.536 503.786 333.3 507.551 337.942 507.551Z" fill="var(--fill-0, #AEDCE9)"/>
<path id="Vector_49" d="M600.589 498.842C606.787 498.842 611.812 493.816 611.812 487.615C611.812 481.415 606.787 476.388 600.589 476.388C594.392 476.388 589.367 481.415 589.367 487.615C589.367 493.816 594.392 498.842 600.589 498.842Z" fill="var(--fill-0, #AEDCE9)"/>
<path id="Vector_50" d="M97.0124 269.885C103.21 269.885 108.235 264.858 108.235 258.658C108.235 252.457 103.21 247.431 97.0124 247.431C90.8144 247.431 85.79 252.457 85.79 258.658C85.79 264.858 90.8144 269.885 97.0124 269.885Z" fill="var(--fill-0, #9FCA93)"/>
<path id="Vector_51" d="M278.749 294.375C283.231 294.375 286.864 290.74 286.864 286.257C286.864 281.773 283.231 278.139 278.749 278.139C274.268 278.139 270.635 281.773 270.635 286.257C270.635 290.74 274.268 294.375 278.749 294.375Z" fill="var(--fill-0, #ED9D9D)"/>
<path id="Vector_52" d="M682.171 253.003C684.645 253.003 686.651 250.996 686.651 248.521C686.651 246.046 684.645 244.039 682.171 244.039C679.697 244.039 677.691 246.046 677.691 248.521C677.691 250.996 679.697 253.003 682.171 253.003Z" fill="var(--fill-0, #AEDCE9)"/>
<path id="Vector_53" d="M346.683 327.683C351.516 327.683 355.434 323.764 355.434 318.929C355.434 314.094 351.516 310.175 346.683 310.175C341.85 310.175 337.933 314.094 337.933 318.929C337.933 323.764 341.85 327.683 346.683 327.683Z" fill="var(--fill-0, #AEDCE9)"/>
<path id="Vector_54" d="M694.193 209.268C697.691 209.268 700.527 206.431 700.527 202.932C700.527 199.432 697.691 196.595 694.193 196.595C690.695 196.595 687.859 199.432 687.859 202.932C687.859 206.431 690.695 209.268 694.193 209.268Z" fill="var(--fill-0, #AEDCE9)"/>
<path id="Vector_55" d="M569.821 181.85C573.058 181.85 575.682 179.225 575.682 175.986C575.682 172.748 573.058 170.123 569.821 170.123C566.584 170.123 563.96 172.748 563.96 175.986C563.96 179.225 566.584 181.85 569.821 181.85Z" fill="var(--fill-0, #9186BB)"/>
<path id="Vector_56" d="M552.547 694.037C557.054 694.037 560.707 690.382 560.707 685.873C560.707 681.365 557.054 677.71 552.547 677.71C548.04 677.71 544.387 681.365 544.387 685.873C544.387 690.382 548.04 694.037 552.547 694.037Z" fill="var(--fill-0, #F5ECB4)"/>
<path id="Vector_57" d="M315.061 239.694C321.259 239.694 326.283 234.668 326.283 228.467C326.283 222.267 321.259 217.24 315.061 217.24C308.863 217.24 303.839 222.267 303.839 228.467C303.839 234.668 308.863 239.694 315.061 239.694Z" fill="var(--fill-0, #AEDCE9)"/>
</g>
<defs>
<clipPath id="clip0_0_9">
<rect width="842.691" height="723" fill="white"/>
</clipPath>
</defs>
</svg>
