<svg width="827" height="213" viewBox="0 0 827 213" fill="none" xmlns="http://www.w3.org/2000/svg">
<path d="M741.962 213L731.312 202.35V0H763.536V194.431L766.266 196.889H791.936L794.666 194.431V0H826.889V202.35L816.239 213H741.962Z" fill="black"/>
<path d="M620.977 213V0H652.927V62.2616L651.015 90.9346H652.107L687.061 0H722.015L678.323 104.588L724.746 213H689.792L652.107 118.242H651.015L652.927 146.915V213H620.977Z" fill="black"/>
<path d="M495.422 213L524.914 0H580.076L609.568 213H577.345L571.064 165.485H533.926L527.645 213H495.422ZM535.837 149.646H569.153L558.776 66.6308L553.86 25.9423H551.13L546.214 66.6308L535.837 149.646Z" fill="black"/>
<path d="M442.053 213V16.3846H411.469V0H504.861V16.3846H474.276V213H442.053Z" fill="black"/>
<path d="M293.422 213V0H329.741L363.876 126.981L370.976 162.481H372.068L368.791 103.769V0H400.468V213H364.149L330.014 86.0193L322.914 50.5192H321.822L325.099 109.231V213H293.422Z" fill="black"/>
<path d="M233.812 213V0H267.128V213H233.812Z" fill="black"/>
<path d="M112.203 213V0H197.676L208.326 10.65V104.588L197.676 115.238H189.484L217.884 213H185.661L157.534 115.238H143.88V213H112.203ZM143.88 97.4885L146.611 99.9462H173.372L176.103 97.4885V18.2962L173.372 15.8385H146.611L143.88 18.2962V97.4885Z" fill="black"/>
<path d="M0 213V0H85.7462L96.3962 10.65V106.5L85.7462 117.15H31.95V213H0ZM31.95 98.8539L34.6808 101.312H61.4423L64.1731 98.8539V18.2962L61.4423 15.8385H34.6808L31.95 18.2962V98.8539Z" fill="black"/>
</svg>
